<mxfile host="app.diagrams.net" agent="Mozilla/5.0 (Windows NT 10.0; Win64; x64) AppleWebKit/537.36 (KHTML, like Gecko) Chrome/130.0.0.0 Safari/537.36" version="24.8.3">
  <diagram id="Ht1M8jgEwFfnCIfOTk4-" name="Page-1">
    <mxGraphModel dx="1208" dy="744" grid="1" gridSize="10" guides="1" tooltips="1" connect="1" arrows="1" fold="1" page="1" pageScale="1" pageWidth="1169" pageHeight="827" math="0" shadow="0">
      <root>
        <mxCell id="0" />
        <mxCell id="1" parent="0" />
        <mxCell id="UEzPUAAOIrF-is8g5C7q-74" value="AWS Cloud" style="points=[[0,0],[0.25,0],[0.5,0],[0.75,0],[1,0],[1,0.25],[1,0.5],[1,0.75],[1,1],[0.75,1],[0.5,1],[0.25,1],[0,1],[0,0.75],[0,0.5],[0,0.25]];outlineConnect=0;gradientColor=none;html=1;whiteSpace=wrap;fontSize=12;fontStyle=0;shape=mxgraph.aws4.group;grIcon=mxgraph.aws4.group_aws_cloud_alt;strokeColor=#232F3E;fillColor=none;verticalAlign=top;align=left;spacingLeft=30;fontColor=#232F3E;dashed=0;labelBackgroundColor=#ffffff;container=1;pointerEvents=0;collapsible=0;recursiveResize=0;" parent="1" vertex="1">
          <mxGeometry x="360" y="40" width="600" height="400" as="geometry" />
        </mxCell>
        <mxCell id="DK3FfQcQ0cy_SEt4562k-6" value="VPC" style="sketch=0;outlineConnect=0;gradientColor=none;html=1;whiteSpace=wrap;fontSize=12;fontStyle=0;shape=mxgraph.aws4.group;grIcon=mxgraph.aws4.group_vpc;strokeColor=#80a90f;fillColor=none;verticalAlign=top;align=left;spacingLeft=30;fontColor=#879196;dashed=0;" vertex="1" parent="UEzPUAAOIrF-is8g5C7q-74">
          <mxGeometry x="50" y="50" width="510" height="310" as="geometry" />
        </mxCell>
        <mxCell id="DK3FfQcQ0cy_SEt4562k-1" value="Internet&lt;div&gt;gateway&lt;/div&gt;" style="sketch=0;outlineConnect=0;fontColor=#232F3E;gradientColor=none;fillColor=#8C4FFF;strokeColor=none;dashed=0;verticalLabelPosition=bottom;verticalAlign=top;align=center;html=1;fontSize=12;fontStyle=0;aspect=fixed;pointerEvents=1;shape=mxgraph.aws4.internet_gateway;" vertex="1" parent="UEzPUAAOIrF-is8g5C7q-74">
          <mxGeometry x="100" y="197" width="48" height="48" as="geometry" />
        </mxCell>
        <mxCell id="DK3FfQcQ0cy_SEt4562k-3" value="Public Security Group" style="fillColor=none;strokeColor=#DD3522;verticalAlign=top;fontStyle=0;fontColor=#DD3522;whiteSpace=wrap;html=1;" vertex="1" parent="UEzPUAAOIrF-is8g5C7q-74">
          <mxGeometry x="200" y="90" width="320" height="230" as="geometry" />
        </mxCell>
        <mxCell id="DK3FfQcQ0cy_SEt4562k-2" value="Public&amp;nbsp;&lt;div&gt;Route Table&lt;/div&gt;" style="sketch=0;outlineConnect=0;fontColor=#232F3E;gradientColor=none;fillColor=#8C4FFF;strokeColor=none;dashed=0;verticalLabelPosition=bottom;verticalAlign=top;align=center;html=1;fontSize=12;fontStyle=0;aspect=fixed;pointerEvents=1;shape=mxgraph.aws4.route_table;" vertex="1" parent="UEzPUAAOIrF-is8g5C7q-74">
          <mxGeometry x="250" y="190.5" width="63.63" height="62" as="geometry" />
        </mxCell>
        <mxCell id="DK3FfQcQ0cy_SEt4562k-4" value="Public Subnet" style="sketch=0;outlineConnect=0;gradientColor=none;html=1;whiteSpace=wrap;fontSize=12;fontStyle=0;shape=mxgraph.aws4.group;grIcon=mxgraph.aws4.group_subnet;strokeColor=#879196;fillColor=none;verticalAlign=top;align=left;spacingLeft=30;fontColor=#879196;dashed=0;" vertex="1" parent="UEzPUAAOIrF-is8g5C7q-74">
          <mxGeometry x="360" y="150" width="130" height="130" as="geometry" />
        </mxCell>
        <mxCell id="DK3FfQcQ0cy_SEt4562k-5" value="Ubuntu" style="sketch=0;points=[[0,0,0],[0.25,0,0],[0.5,0,0],[0.75,0,0],[1,0,0],[0,1,0],[0.25,1,0],[0.5,1,0],[0.75,1,0],[1,1,0],[0,0.25,0],[0,0.5,0],[0,0.75,0],[1,0.25,0],[1,0.5,0],[1,0.75,0]];outlineConnect=0;fontColor=#232F3E;fillColor=#ED7100;strokeColor=#ffffff;dashed=0;verticalLabelPosition=top;verticalAlign=bottom;align=center;html=1;fontSize=12;fontStyle=0;aspect=fixed;shape=mxgraph.aws4.resourceIcon;resIcon=mxgraph.aws4.compute;labelPosition=center;" vertex="1" parent="UEzPUAAOIrF-is8g5C7q-74">
          <mxGeometry x="400.5" y="196.5" width="49" height="49" as="geometry" />
        </mxCell>
        <mxCell id="DK3FfQcQ0cy_SEt4562k-11" value="" style="edgeStyle=orthogonalEdgeStyle;html=1;endArrow=block;elbow=vertical;startArrow=block;startFill=1;endFill=1;strokeColor=#024eb1;rounded=0;" edge="1" parent="UEzPUAAOIrF-is8g5C7q-74" source="DK3FfQcQ0cy_SEt4562k-1" target="DK3FfQcQ0cy_SEt4562k-2">
          <mxGeometry width="100" relative="1" as="geometry">
            <mxPoint x="160" y="220.76" as="sourcePoint" />
            <mxPoint x="230" y="220.76" as="targetPoint" />
            <Array as="points" />
          </mxGeometry>
        </mxCell>
        <mxCell id="DK3FfQcQ0cy_SEt4562k-18" value="" style="edgeStyle=orthogonalEdgeStyle;html=1;endArrow=block;elbow=vertical;startArrow=block;startFill=1;endFill=1;strokeColor=#024eb1;rounded=0;entryX=0;entryY=0.5;entryDx=0;entryDy=0;entryPerimeter=0;" edge="1" parent="UEzPUAAOIrF-is8g5C7q-74" source="DK3FfQcQ0cy_SEt4562k-2" target="DK3FfQcQ0cy_SEt4562k-5">
          <mxGeometry width="100" relative="1" as="geometry">
            <mxPoint x="230.80999999999995" y="170" as="sourcePoint" />
            <mxPoint x="332.80999999999995" y="171" as="targetPoint" />
            <Array as="points" />
          </mxGeometry>
        </mxCell>
        <mxCell id="DK3FfQcQ0cy_SEt4562k-12" value="" style="sketch=0;aspect=fixed;pointerEvents=1;shadow=0;dashed=0;html=1;strokeColor=none;labelPosition=center;verticalLabelPosition=bottom;verticalAlign=top;align=center;fillColor=#00188D;shape=mxgraph.azure.computer" vertex="1" parent="1">
          <mxGeometry x="80" y="216" width="100" height="90" as="geometry" />
        </mxCell>
        <mxCell id="DK3FfQcQ0cy_SEt4562k-13" value="&lt;font style=&quot;font-size: 11px;&quot; color=&quot;#ffffff&quot;&gt;providers&lt;/font&gt;&lt;div style=&quot;font-size: 11px;&quot;&gt;&lt;font style=&quot;font-size: 11px;&quot; color=&quot;#ffffff&quot;&gt;.tf&lt;/font&gt;&lt;/div&gt;" style="whiteSpace=wrap;html=1;shape=mxgraph.basic.document;fillColor=#000000;strokeColor=#7c079d;" vertex="1" parent="1">
          <mxGeometry x="170" y="130" width="50" height="60" as="geometry" />
        </mxCell>
        <mxCell id="DK3FfQcQ0cy_SEt4562k-14" value="&lt;font color=&quot;#ffffff&quot;&gt;&lt;span style=&quot;font-size: 11px;&quot;&gt;variables&lt;/span&gt;&lt;/font&gt;&lt;div&gt;&lt;font color=&quot;#ffffff&quot;&gt;&lt;span style=&quot;font-size: 11px;&quot;&gt;.tf&lt;/span&gt;&lt;/font&gt;&lt;/div&gt;" style="whiteSpace=wrap;html=1;shape=mxgraph.basic.document;fillColor=#000000;strokeColor=#7c079d;" vertex="1" parent="1">
          <mxGeometry x="230" y="130" width="50" height="60" as="geometry" />
        </mxCell>
        <mxCell id="DK3FfQcQ0cy_SEt4562k-15" value="&lt;div style=&quot;font-size: 11px;&quot;&gt;&lt;font style=&quot;font-size: 11px;&quot; color=&quot;#ffffff&quot;&gt;main&lt;/font&gt;&lt;/div&gt;&lt;div style=&quot;font-size: 11px;&quot;&gt;&lt;font style=&quot;font-size: 11px;&quot; color=&quot;#ffffff&quot;&gt;.tf&lt;/font&gt;&lt;/div&gt;" style="whiteSpace=wrap;html=1;shape=mxgraph.basic.document;fillColor=#000000;strokeColor=#7c079d;" vertex="1" parent="1">
          <mxGeometry x="290" y="130" width="50" height="60" as="geometry" />
        </mxCell>
        <mxCell id="DK3FfQcQ0cy_SEt4562k-16" value="&lt;div style=&quot;font-size: 11px;&quot;&gt;&lt;font style=&quot;font-size: 11px;&quot; color=&quot;#ffffff&quot;&gt;userdata&lt;/font&gt;&lt;/div&gt;&lt;div style=&quot;font-size: 11px;&quot;&gt;&lt;font style=&quot;font-size: 11px;&quot; color=&quot;#ffffff&quot;&gt;.tpl&lt;/font&gt;&lt;/div&gt;" style="whiteSpace=wrap;html=1;shape=mxgraph.basic.document;fillColor=#000000;strokeColor=#7c079d;" vertex="1" parent="1">
          <mxGeometry x="240" y="350" width="50" height="60" as="geometry" />
        </mxCell>
        <mxCell id="DK3FfQcQ0cy_SEt4562k-17" value="" style="edgeStyle=orthogonalEdgeStyle;html=1;endArrow=block;elbow=vertical;startArrow=block;startFill=1;endFill=1;strokeColor=#024eb1;rounded=0;exitX=1;exitY=0.5;exitDx=0;exitDy=0;exitPerimeter=0;" edge="1" parent="1" source="DK3FfQcQ0cy_SEt4562k-12" target="DK3FfQcQ0cy_SEt4562k-1">
          <mxGeometry width="100" relative="1" as="geometry">
            <mxPoint x="200" y="260" as="sourcePoint" />
            <mxPoint x="270" y="260" as="targetPoint" />
            <Array as="points" />
          </mxGeometry>
        </mxCell>
        <mxCell id="DK3FfQcQ0cy_SEt4562k-19" value="" style="edgeStyle=orthogonalEdgeStyle;html=1;endArrow=block;elbow=vertical;startArrow=none;endFill=1;strokeColor=#024eb1;rounded=0;exitX=1;exitY=0.5;exitDx=0;exitDy=0;exitPerimeter=0;entryX=0.5;entryY=1;entryDx=0;entryDy=0;entryPerimeter=0;" edge="1" parent="1" source="DK3FfQcQ0cy_SEt4562k-16" target="DK3FfQcQ0cy_SEt4562k-5">
          <mxGeometry width="100" relative="1" as="geometry">
            <mxPoint x="330" y="380" as="sourcePoint" />
            <mxPoint x="430" y="380" as="targetPoint" />
          </mxGeometry>
        </mxCell>
      </root>
    </mxGraphModel>
  </diagram>
</mxfile>
